<svg version="1.2" xmlns="http://www.w3.org/2000/svg" viewBox="0 0 144 139" width="144" height="139"><style></style><path fill-rule="evenodd" d="m129.4 139c-0.4-0.1-2.7-0.4-5.1-0.6-9.4-1-14.9-1.9-16-2.5q-1.4-0.7-1.4-2.3c0-1.3 0.7-2.1 2.4-2.5 1.3-0.4 1.7-0.5 9.8-1.6 2.9-0.4 5.4-0.7 5.6-0.8 0.2-0.1-1.5-0.7-3.8-1.5-10.7-3.5-20.3-8.8-29-15.9-3.3-2.8-10-9.4-12.5-12.5-5.4-6.6-9.6-14.2-12.7-23-0.6-1.8-1.2-3.2-1.3-3.2-0.1 0-1.5 0.2-3.1 0.3-9.2 1.1-19-1.5-28.1-7.5-9.4-6.2-15.6-13.5-23.6-27.4-8.1-13.8-11.7-25.5-10.3-33 0.6-3.4 1.8-5 3.7-5 1.3 0 1.4 0.4 0.2 1-1.1 0.6-1.5 1.2-1.9 2.8-1.7 8.2 4 23 15.2 39.8 5.8 8.8 10.9 14.1 18.1 18.9 8.3 5.5 17.2 8 25.7 7.2 3.8-0.3 3.5-0.1 3-2.6-1.9-10-0.4-20 3.8-24.7 5.2-5.7 14-4.6 17.1 2.1 1.3 2.9 1.4 7.5 0.1 11.2-2 5.8-5.1 10.1-9.7 13-1.6 1.1-5 2.6-5.6 2.6-0.5 0-0.4 0.6 0.4 2.9 2.1 6 5.2 12.5 8.2 16.9 4.8 7.3 13 15.6 20.8 21 6.6 4.7 14.1 8.5 21.3 11 3.3 1.2 9.4 2.8 9.6 2.6 0.1 0-0.5-1-1.3-2-4-5.6-6-10.6-6.4-15.5-0.1-2.7 0-3.5 0.5-3.2 0.1 0.1 0.8 1.3 1.5 2.7 1.9 3.7 7.4 10.8 15.2 19.8 1.6 1.7 3.1 3.7 3.5 4.5 1.5 3 0.5 5.5-2.7 6.5-0.9 0.3-2.2 0.5-5.8 0.5-2.5 0-4.9 0-5.4 0zm8-4.9c0.1-0.1-0.4-0.7-1.1-1.3l-1.2-1.2-3.8 0.7c-2.1 0.4-4.3 0.8-4.9 0.9-1.3 0.2-2 0.5-1.2 0.6 0.3 0 1.9 0.1 3.5 0.3 2.9 0.3 8.4 0.3 8.7 0zm-65.7-67.1c4.7-2.3 7.9-6.2 9.8-11.7 2.3-6.7-0.1-12.4-5.3-12.4-2.7-0.1-5.1 1.6-6.5 4.6-1.3 2.8-1.9 5.6-2 10-0.1 3.8 0 5.7 0.7 9.3l0.2 1.5 0.9-0.3c0.5-0.2 1.5-0.6 2.2-1z"/></svg>