<svg version="1.2" xmlns="http://www.w3.org/2000/svg" viewBox="0 0 123 124" width="123" height="124"><defs><clipPath clipPathUnits="userSpaceOnUse" id="cp1"><path d="m46.13 46.63h30.75v30.75h-30.75z"/></clipPath></defs><style>.a{fill:#f2f1ed}.b{fill:#3875f7}.c{fill:#fff}</style><path fill-rule="evenodd" class="a" d="m61.5 103.6c-23 0-41.6-18.6-41.6-41.6 0-23 18.6-41.6 41.6-41.6 23 0 41.6 18.6 41.6 41.6 0 23-18.6 41.6-41.6 41.6z"/><path fill-rule="evenodd" class="b" d="m61.4 90.5c-15.8 0-28.6-12.8-28.6-28.6 0-15.8 12.8-28.6 28.6-28.6 15.8 0 28.6 12.8 28.6 28.6 0 15.8-12.8 28.6-28.6 28.6z"/><g clip-path="url(#cp1)"><path class="c" d="m63.3 55.7c0.5 0 0.9-0.4 0.9-0.9 0-0.5-0.4-0.9-0.9-0.9-0.5 0-0.9 0.4-0.9 0.9 0 0.5 0.4 0.9 0.9 0.9z"/><path class="c" d="m66.9 55.7c0.5 0 0.9-0.4 0.9-0.9 0-0.5-0.4-0.9-0.9-0.9-0.5 0-0.9 0.4-0.9 0.9 0 0.5 0.4 0.9 0.9 0.9z"/><path class="c" d="m70.5 55.7c0.5 0 0.9-0.4 0.9-0.9 0-0.5-0.4-0.9-0.9-0.9-0.5 0-0.9 0.4-0.9 0.9 0 0.5 0.4 0.9 0.9 0.9z"/><path class="c" d="m66.4 75.5c1.5 0 2.7-1.2 2.7-2.7v-3.6c0-0.4-0.3-0.7-0.6-0.8l-5.4-1.8c-0.3-0.1-0.6-0.1-0.8 0.1l-2.3 1.5c-2.5-1.2-5.4-4.1-6.5-6.5l1.5-2.3c0.1-0.2 0.2-0.5 0.1-0.8l-1.8-5.3c-0.1-0.4-0.5-0.7-0.9-0.7h-3.6c-1.5 0-2.7 1.2-2.7 2.7 0 5 2.3 10.1 6.2 14 4 4 9.1 6.2 14.1 6.2zm-17.6-21.1h3l1.4 4.4-1.5 2.3c-0.2 0.3-0.2 0.6-0.1 0.9 0.6 1.5 1.8 3.1 3.4 4.7 1.5 1.6 3.2 2.7 4.7 3.3 0.3 0.2 0.6 0.1 0.9 0l2.3-1.6 4.4 1.5v2.9c0 0.5-0.4 0.9-0.9 0.9-9.5 0-18.5-8.9-18.5-18.4 0-0.5 0.4-0.9 0.9-0.9z"/><path class="c" d="m63 64.6c0.3 0.2 0.7 0.1 0.9-0.2l3.4-3.3h3.2c3.5 0 6.4-2.8 6.4-6.3 0-3.5-2.9-6.3-6.4-6.3h-7.2c-3.5 0-6.3 2.8-6.3 6.3 0 3.2 2.3 5.8 5.4 6.2v2.8c0 0.4 0.2 0.7 0.6 0.8zm-4.2-9.8c0-2.5 2-4.5 4.5-4.5h7.2c2.5 0 4.6 2 4.6 4.5 0 2.5-2.1 4.5-4.6 4.5h-3.6q-0.4 0-0.6 0.3l-2.1 2v-1.4c0-0.5-0.4-0.9-0.9-0.9-2.5 0-4.5-2-4.5-4.5z"/></g><path class="b" d="m123 62c0 34-27.5 61.5-61.5 61.5-34 0-61.5-27.5-61.5-61.5 0-34 27.5-61.5 61.5-61.5 34 0 61.5 27.5 61.5 61.5zm-102.6 0c0 22.7 18.4 41.1 41.1 41.1 22.7 0 41.1-18.4 41.1-41.1 0-22.7-18.4-41.1-41.1-41.1-22.7 0-41.1 18.4-41.1 41.1z"/><path class="c" d="m68.6 13.3l1.9 0.2q-0.2 0.9-0.7 1.6-0.5 0.6-1.4 0.9-0.8 0.4-1.9 0.2-0.9 0-1.5-0.4-0.7-0.4-1.1-1-0.5-0.6-0.6-1.5-0.2-0.8-0.1-1.8l0.1-0.6q0.1-1 0.4-1.8 0.4-0.8 0.9-1.3 0.6-0.5 1.3-0.7 0.7-0.3 1.6-0.2 1.1 0.1 1.9 0.6 0.7 0.5 1 1.3 0.4 0.8 0.4 1.7l-1.9-0.2q0.1-0.5-0.1-0.9-0.1-0.5-0.5-0.7-0.4-0.2-1-0.3-0.4 0-0.8 0.1-0.4 0.1-0.6 0.5-0.3 0.3-0.5 0.8-0.2 0.5-0.2 1.3l-0.1 0.6q-0.1 0.7 0 1.3 0 0.5 0.2 0.9 0.2 0.4 0.5 0.6 0.3 0.2 0.8 0.3 0.6 0 1-0.1 0.4-0.2 0.7-0.5 0.2-0.4 0.3-0.9z"/><path class="c" d="m73.3 13.8l0.1-0.1q0.2-0.8 0.6-1.3 0.4-0.5 0.9-0.9 0.5-0.3 1.2-0.4 0.6 0 1.4 0.2 0.7 0.2 1.2 0.7 0.5 0.4 0.7 0.9 0.3 0.6 0.3 1.3 0 0.6-0.2 1.3v0.2q-0.2 0.7-0.6 1.2-0.4 0.6-1 0.9-0.5 0.3-1.1 0.4-0.7 0-1.4-0.2-0.7-0.2-1.2-0.6-0.5-0.5-0.8-1-0.2-0.6-0.3-1.2 0-0.7 0.2-1.4zm1.8 0.4v0.1q-0.2 0.4-0.2 0.8 0 0.4 0 0.7 0.1 0.3 0.3 0.5 0.2 0.3 0.6 0.4 0.4 0.1 0.7 0 0.3-0.1 0.5-0.3 0.2-0.2 0.4-0.5 0.2-0.4 0.3-0.8l0.1-0.1q0.1-0.4 0.1-0.8 0.1-0.3 0-0.6-0.1-0.4-0.3-0.6-0.2-0.2-0.6-0.4-0.3-0.1-0.6 0-0.3 0.1-0.6 0.3-0.2 0.2-0.4 0.6-0.2 0.3-0.3 0.7z"/><path class="c" d="m84.3 15.6l-2.4 4.8-1.6-0.8 3.1-6.1 1.5 0.8zm-1 1.4l-0.5-0.2q0.4-0.7 0.8-1.1 0.5-0.5 1-0.7 0.5-0.2 1-0.2 0.6 0 1.1 0.3 0.4 0.2 0.7 0.5 0.3 0.3 0.4 0.7 0.1 0.4 0 0.9-0.1 0.5-0.4 1.1l-2 3.9-1.6-0.8 2-3.9q0.2-0.4 0.2-0.7 0-0.3-0.2-0.5-0.1-0.2-0.4-0.3-0.4-0.2-0.7-0.2-0.3 0-0.5 0.2-0.3 0.1-0.5 0.4-0.3 0.2-0.4 0.6z"/><path class="c" d="m93.8 19.7l-0.7 1-3.3-2.2 0.8-1.1zm-1.5-3l1.5 1-3.7 5.3q-0.2 0.2-0.2 0.4 0 0.2 0.1 0.3 0.1 0.1 0.3 0.3 0.1 0.1 0.2 0.1 0.2 0.1 0.2 0.1l-0.7 1.1q-0.2 0-0.5-0.2-0.2-0.1-0.5-0.3-0.5-0.3-0.7-0.7-0.3-0.4-0.2-0.9 0-0.5 0.4-1.1z"/><path class="c" d="m94.7 27.3l2-2.2q0.2-0.3 0.3-0.5 0.1-0.3 0-0.5-0.1-0.3-0.3-0.5-0.2-0.2-0.5-0.3-0.2 0-0.4 0-0.2 0.1-0.4 0.3l-1.3-1.2q0.2-0.3 0.7-0.5 0.4-0.2 0.8-0.1 0.5 0 1 0.2 0.5 0.3 1 0.7 0.6 0.5 0.9 1.2 0.3 0.6 0.2 1.2-0.1 0.6-0.6 1.2l-2 2.1q-0.4 0.5-0.6 0.8-0.1 0.3-0.2 0.6h-0.1l-1.3-1.2q0-0.3 0.3-0.6 0.2-0.4 0.5-0.7zm1.9-1.8l-0.7 0.8-0.7-0.7q-0.3-0.2-0.5-0.3-0.3-0.1-0.5-0.1-0.2-0.1-0.4 0-0.2 0.1-0.4 0.3-0.1 0.2-0.2 0.4 0 0.2 0.1 0.4 0.1 0.2 0.3 0.4 0.3 0.3 0.6 0.3 0.3 0.1 0.6 0.1 0.3-0.1 0.4-0.3l-0.1 0.9q-0.3 0.2-0.6 0.2-0.3 0.1-0.7 0.1-0.3 0-0.7-0.1-0.4-0.1-0.7-0.5-0.5-0.4-0.7-1-0.2-0.5-0.2-1 0.1-0.6 0.5-1 0.4-0.4 0.8-0.6 0.4-0.2 0.9-0.1 0.5 0 1 0.3 0.6 0.3 1.1 0.8z"/><path class="c" d="m99.2 32.6q0.2 0.2 0.5 0.4 0.2 0.1 0.5 0 0.3 0 0.5-0.2l1.1 1.3q-0.6 0.5-1.2 0.5-0.7 0.1-1.3-0.2-0.7-0.3-1.2-0.9-0.5-0.6-0.6-1.3-0.2-0.6 0-1.2 0.1-0.6 0.4-1.1 0.4-0.6 1-1l0.1-0.1q0.6-0.5 1.2-0.7 0.6-0.2 1.2-0.2 0.6 0 1.2 0.3 0.5 0.3 1 0.9 0.6 0.7 0.7 1.3 0.1 0.7-0.1 1.4-0.2 0.6-0.9 1.1l-1-1.3q0.2-0.2 0.4-0.5 0.1-0.3 0.1-0.6-0.1-0.3-0.3-0.5-0.2-0.4-0.5-0.4-0.3-0.1-0.6-0.1-0.3 0.1-0.6 0.3-0.4 0.2-0.7 0.4l-0.1 0.1q-0.3 0.3-0.6 0.5-0.2 0.3-0.4 0.6-0.1 0.3-0.1 0.6 0.1 0.3 0.3 0.6z"/><path class="c" d="m108.5 33.2l0.9 1.6-5.5 3.3q-0.3 0.1-0.3 0.3-0.1 0.1-0.1 0.3 0 0.2 0.1 0.4 0.1 0.1 0.2 0.2 0.1 0.1 0.2 0.2l-1.2 0.7q-0.2-0.2-0.3-0.4-0.2-0.2-0.4-0.5-0.3-0.5-0.3-1-0.1-0.4 0.2-0.9 0.2-0.4 0.8-0.8zm0.1 3.4l-1.1 0.7-2-3.4 1.1-0.7z"/><path class="c" d="m116 49.1l-8.7 2.7-0.6-1.8 4.8-5.3-5.9 1.8-0.5-1.8 8.7-2.7 0.5 1.8-4.7 5.3 5.8-1.8z"/><path class="c" d="m111 53.7h0.2q0.7-0.1 1.4 0.1 0.6 0.1 1.1 0.5 0.5 0.3 0.8 0.9 0.4 0.5 0.4 1.3 0.1 0.8-0.1 1.4-0.2 0.6-0.6 1.1-0.4 0.4-1 0.7-0.6 0.3-1.4 0.4h-0.1q-0.7 0.1-1.4-0.1-0.6-0.1-1.1-0.5-0.5-0.3-0.9-0.9-0.3-0.6-0.3-1.3-0.1-0.8 0.1-1.4 0.2-0.6 0.6-1.1 0.4-0.5 1-0.7 0.6-0.3 1.3-0.4zm0.4 1.8h-0.2q-0.4 0.1-0.8 0.2-0.3 0.1-0.6 0.3-0.2 0.2-0.4 0.5-0.1 0.2 0 0.6 0 0.4 0.2 0.6 0.2 0.3 0.4 0.4 0.3 0.2 0.7 0.2 0.4 0 0.8 0h0.2q0.4-0.1 0.7-0.2 0.4-0.1 0.6-0.3 0.3-0.2 0.4-0.5 0.2-0.3 0.1-0.6 0-0.4-0.2-0.7-0.2-0.2-0.5-0.3-0.3-0.2-0.7-0.2-0.3-0.1-0.7 0z"/><path class="c" d="m110.1 64.5l4.9 1.8-0.1 1.2-1.9-0.6-4.7-1.8 0.1-1zm5.1-0.2l-5.1 0.5-1.8-0.1 0.1-1.1 6.9-1.1zm-5.3 4.1l4.8 1.5-0.2 1.7-6.5-2.4 0.1-1.1zm5-0.6l-5.1 0.9h-1.8l0.1-1 4.9-0.9 2-0.2z"/><path class="c" d="m109.1 81.8l-1.3-0.5 1.3-3.3 1.3 0.5z"/><path class="c" d="m101.4 92.2l-1.1 1.5q-0.8-0.5-1.1-1.3-0.3-0.8-0.2-1.7 0.2-0.9 0.8-1.8 0.5-0.7 1.2-1.1 0.6-0.4 1.4-0.4 0.7-0.1 1.6 0.2 0.8 0.2 1.6 0.8l0.5 0.4q0.8 0.5 1.3 1.2 0.5 0.7 0.7 1.5 0.2 0.7 0 1.4-0.1 0.8-0.6 1.5-0.7 0.9-1.5 1.3-0.8 0.4-1.6 0.3-0.9 0-1.7-0.5l1.1-1.5q0.5 0.3 0.9 0.3 0.4 0.1 0.8-0.1 0.4-0.2 0.7-0.7 0.3-0.4 0.4-0.8 0-0.3-0.1-0.7-0.2-0.4-0.5-0.9-0.4-0.4-1-0.8l-0.5-0.4q-0.6-0.4-1.1-0.6-0.5-0.2-0.9-0.3-0.5 0-0.8 0.2-0.4 0.2-0.7 0.6-0.3 0.5-0.4 0.9 0 0.4 0.1 0.8 0.2 0.4 0.7 0.7z"/><path class="c" d="m98.6 96.1l0.1 0.1q0.5 0.5 0.8 1.1 0.3 0.7 0.3 1.3 0 0.6-0.2 1.2-0.3 0.6-0.9 1.1-0.5 0.5-1.1 0.8-0.6 0.2-1.3 0.1-0.6 0-1.2-0.3-0.5-0.3-1.1-0.9l-0.1-0.1q-0.5-0.5-0.7-1.1-0.3-0.6-0.3-1.2-0.1-0.7 0.2-1.3 0.2-0.6 0.8-1.1 0.6-0.5 1.2-0.7 0.6-0.3 1.2-0.2 0.6 0.1 1.2 0.4 0.6 0.3 1.1 0.8zm-1.2 1.3l-0.1-0.1q-0.3-0.3-0.6-0.5-0.3-0.2-0.6-0.3-0.3-0.1-0.6 0-0.3 0.1-0.6 0.3-0.3 0.3-0.4 0.6-0.1 0.3 0 0.6 0.1 0.3 0.3 0.6 0.2 0.4 0.5 0.7l0.1 0.1q0.2 0.3 0.5 0.5 0.4 0.2 0.7 0.3 0.3 0.1 0.6 0 0.3-0.1 0.6-0.3 0.3-0.3 0.3-0.6 0.1-0.3 0-0.6 0-0.3-0.2-0.6-0.2-0.4-0.5-0.7z"/><path class="c" d="m91.6 104.8l-2.9-4.5 1.5-1 3.7 5.7-1.4 0.9zm-0.7-1.6l0.4-0.2q0.4 0.6 0.6 1.2 0.1 0.6 0.1 1.2-0.1 0.5-0.3 1-0.3 0.4-0.8 0.8-0.4 0.2-0.8 0.3-0.4 0.1-0.8 0-0.4 0-0.8-0.4-0.4-0.3-0.8-0.9l-2.4-3.6 1.5-1 2.4 3.6q0.2 0.4 0.5 0.5 0.2 0.2 0.5 0.1 0.2 0 0.5-0.2 0.3-0.2 0.5-0.5 0.1-0.3 0.1-0.6 0-0.3-0.1-0.6-0.1-0.3-0.3-0.7z"/><path class="c" d="m83.4 111.1l-0.5-1.2 3.5-1.7 0.6 1.1zm3.4 0.2l-1.7 0.8-2.8-5.7q-0.1-0.3-0.2-0.4-0.2-0.1-0.3-0.1-0.2 0-0.4 0.1-0.2 0.1-0.3 0.2-0.1 0-0.2 0.1l-0.5-1.2q0.1-0.2 0.4-0.3 0.2-0.2 0.5-0.3 0.5-0.3 1-0.3 0.5 0 0.9 0.3 0.4 0.3 0.7 0.9z"/><path class="c" d="m76.4 108.1l0.9 2.9q0.1 0.3 0.3 0.5 0.2 0.1 0.4 0.2 0.3 0.1 0.6-0.1 0.3-0.1 0.5-0.2 0.1-0.2 0.2-0.4 0-0.2 0-0.5l1.7-0.5q0.1 0.4 0 0.8 0 0.4-0.3 0.8-0.3 0.4-0.7 0.8-0.5 0.3-1.1 0.5-0.7 0.3-1.4 0.2-0.7-0.1-1.2-0.4-0.5-0.4-0.7-1.2l-0.9-2.7q-0.2-0.6-0.4-0.9-0.2-0.3-0.4-0.5v-0.1l1.7-0.6q0.2 0.2 0.4 0.6 0.2 0.4 0.4 0.8zm0.5 2.5l-0.3-0.9 1-0.4q0.3-0.1 0.5-0.2 0.3-0.2 0.4-0.4 0.1-0.2 0.1-0.4 0-0.2-0.1-0.4 0-0.2-0.2-0.4-0.2-0.1-0.4-0.1-0.2-0.1-0.5 0-0.3 0.1-0.6 0.4-0.2 0.2-0.3 0.5-0.1 0.3 0 0.5l-0.7-0.6q0-0.3 0.1-0.6 0.1-0.3 0.2-0.6 0.2-0.3 0.5-0.6 0.3-0.2 0.8-0.4 0.6-0.2 1.2-0.1 0.6 0.1 1 0.4 0.4 0.3 0.6 0.9 0.2 0.5 0.1 1 0 0.4-0.3 0.8-0.3 0.4-0.8 0.7-0.5 0.4-1.3 0.6z"/><path class="c" d="m69.5 109.4q-0.3 0.1-0.5 0.3-0.3 0.1-0.4 0.4-0.1 0.2 0 0.6l-1.7 0.2q-0.1-0.7 0.2-1.3 0.3-0.6 0.8-1 0.6-0.4 1.4-0.5 0.8-0.2 1.4 0 0.6 0.2 1.1 0.6 0.4 0.4 0.7 1 0.3 0.6 0.4 1.3v0.1q0.1 0.7 0 1.4-0.1 0.6-0.4 1.2-0.3 0.5-0.8 0.8-0.5 0.4-1.3 0.5-0.8 0.1-1.5-0.1-0.7-0.2-1.1-0.7-0.5-0.6-0.6-1.4l1.7-0.2q0 0.3 0.2 0.6 0.2 0.2 0.5 0.3 0.2 0.2 0.6 0.1 0.4-0.1 0.6-0.3 0.2-0.2 0.3-0.5 0.1-0.3 0.1-0.6 0-0.4-0.1-0.8v-0.2q0-0.4-0.2-0.7-0.1-0.4-0.2-0.6-0.2-0.3-0.5-0.4-0.3-0.1-0.7-0.1z"/><path class="c" d="m61.4 115.6l-0.1-1.3 4-0.1v1.3zm3 1.6h-1.8l-0.1-6.4q0-0.3-0.1-0.4-0.1-0.2-0.3-0.2-0.1-0.1-0.4-0.1-0.1 0-0.3 0-0.1 0-0.2 0.1v-1.4q0.2 0 0.5-0.1 0.2 0 0.6 0 0.6-0.1 1 0.1 0.4 0.2 0.7 0.6 0.2 0.5 0.3 1.2z"/><path class="c" d="m46.8 115.9l2-8.9 1.8 0.4 2.3 6.8 1.3-6 1.8 0.4-1.9 8.9-1.8-0.4-2.3-6.8-1.3 6z"/><path class="c" d="m45.2 109.3v0.2q-0.3 0.6-0.7 1.1-0.5 0.5-1 0.8-0.6 0.3-1.3 0.3-0.6 0-1.3-0.3-0.7-0.3-1.2-0.8-0.4-0.5-0.6-1.1-0.2-0.6-0.1-1.2 0-0.7 0.3-1.4l0.1-0.1q0.2-0.7 0.7-1.2 0.4-0.5 1-0.7 0.6-0.3 1.2-0.3 0.7 0 1.4 0.3 0.7 0.3 1.1 0.8 0.5 0.5 0.7 1 0.1 0.6 0.1 1.3-0.1 0.7-0.4 1.3zm-1.7-0.6l0.1-0.1q0.2-0.4 0.2-0.7 0.1-0.4 0.1-0.7-0.1-0.3-0.3-0.6-0.1-0.2-0.5-0.4-0.3-0.1-0.7-0.1-0.3 0-0.5 0.2-0.3 0.2-0.5 0.5-0.2 0.3-0.4 0.7v0.1q-0.2 0.4-0.3 0.8 0 0.4 0 0.7 0 0.3 0.2 0.6 0.2 0.2 0.5 0.4 0.4 0.1 0.7 0.1 0.3-0.1 0.6-0.3 0.2-0.2 0.5-0.5 0.2-0.3 0.3-0.7z"/><path class="c" d="m36.4 103.3l-4 3.3-1-0.6 1.5-1.4 3.9-3.2 0.8 0.6zm-2.3 4.5l2-4.7 1-1.5 0.9 0.7-2.5 6.5zm-0.9-6.7l-3.6 3.5-1.5-1 5.3-4.5 0.9 0.6zm-1.9 4.7l1.7-4.9 0.9-1.6 0.8 0.6-1.6 4.7-0.8 1.8z"/><path class="c" d="m21.8 93.9l1.1-0.9 2.2 2.7-1.1 1z"/><path class="c" d="m16.5 82l-0.8-1.7q0.9-0.3 1.7-0.2 0.8 0.1 1.6 0.7 0.7 0.5 1.1 1.5 0.4 0.8 0.4 1.6 0 0.7-0.3 1.4-0.3 0.7-0.9 1.3-0.6 0.6-1.5 1l-0.6 0.3q-0.9 0.4-1.7 0.5-0.9 0.1-1.6-0.1-0.8-0.2-1.3-0.7-0.6-0.5-1-1.3-0.4-1-0.4-1.9 0-0.9 0.5-1.6 0.5-0.7 1.3-1.2l0.8 1.7q-0.5 0.3-0.8 0.6-0.2 0.3-0.3 0.8 0 0.4 0.3 1 0.2 0.4 0.5 0.6 0.3 0.3 0.7 0.3 0.4 0.1 1 0 0.5-0.2 1.2-0.5l0.6-0.2q0.6-0.3 1.1-0.7 0.4-0.3 0.6-0.6 0.3-0.4 0.3-0.8 0-0.4-0.2-0.8-0.3-0.6-0.6-0.8-0.3-0.3-0.8-0.3-0.4-0.1-0.9 0.1z"/><path class="c" d="m14.5 77.7l-0.2 0.1q-0.7 0.1-1.3 0.1-0.7-0.1-1.3-0.4-0.5-0.2-0.9-0.8-0.4-0.5-0.6-1.2-0.2-0.8-0.1-1.4 0.1-0.7 0.5-1.2 0.3-0.5 0.9-0.8 0.6-0.4 1.3-0.6h0.1q0.7-0.2 1.4-0.1 0.7 0 1.2 0.3 0.6 0.3 0.9 0.8 0.4 0.5 0.6 1.3 0.2 0.7 0.1 1.4-0.1 0.6-0.4 1.1-0.4 0.5-1 0.9-0.5 0.3-1.2 0.5zm-0.6-1.7h0.1q0.4-0.1 0.8-0.3 0.3-0.2 0.6-0.4 0.2-0.2 0.3-0.5 0.1-0.3 0-0.7-0.1-0.3-0.3-0.6-0.3-0.2-0.6-0.3-0.3-0.1-0.7-0.1-0.3 0-0.8 0.2h-0.1q-0.4 0.1-0.7 0.3-0.4 0.1-0.6 0.3-0.2 0.3-0.3 0.6-0.1 0.3 0 0.6 0.1 0.4 0.3 0.6 0.2 0.3 0.5 0.3 0.3 0.1 0.7 0.1 0.4 0 0.8-0.1z"/><path class="c" d="m10.4 67.4l5.3-0.4 0.1 1.8-6.7 0.5-0.2-1.7zm1.8 0.1v0.5q-0.8 0.1-1.4-0.1-0.6-0.1-1-0.4-0.5-0.4-0.8-0.8-0.2-0.5-0.3-1.1 0-0.5 0.1-0.9 0.1-0.4 0.4-0.7 0.3-0.3 0.8-0.5 0.4-0.2 1.2-0.2l4.3-0.3 0.1 1.8-4.3 0.3q-0.5 0-0.7 0.2-0.2 0.1-0.3 0.4-0.1 0.2-0.1 0.6 0 0.3 0.2 0.6 0.2 0.2 0.4 0.4 0.3 0.1 0.6 0.2 0.4 0.1 0.8 0z"/><path class="c" d="m8.9 57.1l1.3 0.1-0.2 3.9-1.3-0.1zm-1.9 2.9l0.1-1.8 6.4 0.4q0.3 0 0.5-0.1 0.1 0 0.2-0.2 0.1-0.2 0.1-0.4 0-0.2 0-0.3 0-0.1 0-0.2l1.3 0.1q0.1 0.2 0.1 0.5 0 0.2 0 0.6 0 0.6-0.3 1-0.2 0.4-0.6 0.6-0.5 0.2-1.2 0.2z"/><path class="c" d="m15 52.4l-3-0.6q-0.3 0-0.6 0-0.2 0.1-0.4 0.3-0.2 0.2-0.2 0.5-0.1 0.3 0 0.5 0 0.3 0.2 0.4 0.2 0.2 0.4 0.2l-0.3 1.8q-0.4-0.1-0.8-0.3-0.3-0.3-0.5-0.7-0.3-0.5-0.3-1-0.1-0.6 0-1.2 0.2-0.8 0.6-1.4 0.3-0.5 0.9-0.7 0.6-0.3 1.4-0.1l2.8 0.5q0.6 0.1 0.9 0.1 0.4 0 0.7-0.1h0.1l-0.4 1.8q-0.3 0.1-0.7 0.1-0.4 0-0.8-0.1zm-2.5-0.7l1 0.2-0.2 0.9q-0.1 0.4-0.1 0.7 0.1 0.2 0.2 0.4 0.1 0.2 0.3 0.4 0.1 0.1 0.4 0.1 0.2 0 0.4 0 0.2-0.1 0.3-0.3 0.2-0.1 0.2-0.4 0.1-0.4 0-0.7-0.1-0.4-0.3-0.6-0.2-0.2-0.4-0.2l0.8-0.3q0.3 0.1 0.5 0.3 0.2 0.2 0.4 0.6 0.2 0.3 0.3 0.6 0.1 0.4 0 0.9-0.1 0.7-0.5 1.1-0.3 0.5-0.9 0.7-0.5 0.2-1 0.1-0.6-0.1-0.9-0.4-0.4-0.2-0.6-0.7-0.2-0.4-0.2-1-0.1-0.6 0.1-1.4z"/><path class="c" d="m17.1 45.8q0.2-0.3 0.1-0.6 0-0.3-0.2-0.5-0.1-0.2-0.4-0.4l0.6-1.5q0.6 0.2 1 0.8 0.4 0.5 0.5 1.2 0 0.7-0.2 1.4-0.3 0.8-0.8 1.2-0.4 0.5-1 0.7-0.5 0.2-1.2 0.2-0.7-0.1-1.3-0.3l-0.2-0.1q-0.7-0.2-1.2-0.6-0.5-0.4-0.8-1-0.3-0.5-0.3-1.1-0.1-0.7 0.2-1.4 0.3-0.8 0.8-1.3 0.5-0.4 1.2-0.6 0.7-0.1 1.4 0.2l-0.6 1.6q-0.3-0.1-0.6-0.1-0.3 0-0.5 0.2-0.3 0.2-0.4 0.5-0.1 0.4-0.1 0.7 0.1 0.3 0.3 0.5 0.2 0.2 0.6 0.4 0.3 0.2 0.6 0.3l0.2 0.1q0.4 0.1 0.7 0.2 0.4 0.1 0.7 0.1 0.3-0.1 0.6-0.3 0.2-0.1 0.3-0.5z"/><path class="c" d="m15.8 35.7l1.1 0.6-1.8 3.5-1.1-0.6zm-2.9 1.8l0.8-1.6 5.7 3q0.3 0.1 0.4 0.2 0.2 0 0.3-0.2 0.2-0.1 0.3-0.3 0-0.1 0.1-0.2 0-0.2 0.1-0.3l1.1 0.7q0 0.2-0.1 0.4-0.1 0.3-0.2 0.6-0.3 0.5-0.7 0.8-0.4 0.3-0.9 0.3-0.5 0-1.1-0.3z"/><path class="c" d="m22.7 22.9l6.8 6-1.3 1.4-7-1.3 4.6 4.1-1.3 1.4-6.8-6.1 1.3-1.4 7 1.3-4.6-4z"/><path class="c" d="m29.2 24.7l-0.1-0.1q-0.5-0.6-0.7-1.2-0.2-0.6-0.2-1.2 0.1-0.6 0.4-1.2 0.3-0.6 0.9-1 0.6-0.5 1.3-0.7 0.6-0.1 1.2 0 0.6 0.1 1.2 0.5 0.5 0.4 1 0.9l0.1 0.2q0.4 0.5 0.6 1.2 0.2 0.6 0.2 1.2-0.1 0.6-0.4 1.2-0.3 0.6-0.9 1-0.6 0.5-1.3 0.7-0.6 0.1-1.2 0-0.6-0.1-1.1-0.5-0.6-0.4-1-1zm1.3-1.2l0.1 0.1q0.2 0.4 0.5 0.6 0.3 0.3 0.6 0.4 0.3 0.1 0.6 0.1 0.3-0.1 0.6-0.3 0.3-0.2 0.5-0.5 0.1-0.3 0-0.6 0-0.3-0.2-0.7-0.1-0.3-0.4-0.7l-0.1-0.1q-0.2-0.3-0.5-0.5-0.3-0.3-0.6-0.4-0.3-0.1-0.6-0.1-0.3 0-0.6 0.3-0.3 0.2-0.4 0.5-0.1 0.3-0.1 0.6 0 0.3 0.2 0.7 0.2 0.3 0.4 0.6z"/><path class="c" d="m38.7 20l-0.9-5.1 1.1-0.5 0.5 1.9 0.8 4.9-0.9 0.5zm-2.8-4.3l3.1 4.1 0.8 1.6-1 0.5-4.5-5.4zm6.3 2.5l-1.3-4.9 1.6-0.8 1.4 6.9-1 0.5zm-3.2-4l3.4 3.9 1 1.5-0.9 0.5-3.3-3.8-1.2-1.6z"/><path class="c" d="m54.1 11.9l0.2 1.3-3.4 0.7-0.3-1.4z"/></svg>