<?xml version="1.0" encoding="UTF-8"?>
<svg id="Layer_1" xmlns="http://www.w3.org/2000/svg" version="1.1" viewBox="0 0 134 51">
  <!-- Generator: Adobe Illustrator 29.5.0, SVG Export Plug-In . SVG Version: 2.1.0 Build 15)  -->
  <defs>
    <style>
      .st0 {
        fill: #aad039;
      }

      .st1 {
        fill: #a7dff7;
      }

      .st2 {
        font-family: Montserrat-SemiBold, Montserrat;
        font-size: 9.7px;
      }

      .st2, .st3 {
        font-weight: 600;
      }

      .st2, .st3, .st4 {
        fill: #fff;
      }

      .st5 {
        fill: #46c0bc;
      }

      .st3 {
        font-family: Mont-Trial-SemiBold, Mont-Trial;
        font-size: 4.4px;
      }

      .st4 {
        font-family: Montserrat-Light, Montserrat;
        font-size: 2.6px;
        font-weight: 300;
      }

      .st6 {
        fill: #00a6b3;
      }
    </style>
  </defs>
  <g>
    <path class="st0" d="M12.1,24c.5.3,1.4,1.2,1.9,1.7s1.1,1.3,1.8,1.7c.2.3-1,5.1-1.2,5.8l-6-3.1c0-.4,1.4-2.8,1.7-3.4s.6-1.4.9-2,.4-.9.9-.6Z"/>
    <path class="st1" d="M13.3,42.1s0-.1-.1-.2l-3.3-1.8c0-.7-.1-1.4-.3-2.2l-.4-3.1,6.7.9c.9.2.3.9.2,1.5-.3,1.3-.5,3-1,4.2s-.4,1.3-.8,1.2c-.3-.3-.7-.4-1-.6Z"/>
    <path class="st1" d="M6.3,25.3l-2.1-4.1v-.6c-.1,0,2.1-4.2,2.1-4.2.2-.3.6,0,.8,0,.8.6,2.3,1.9,3,2.6s1,1.1,1.5,1.5c0,0-.2,0-.3.1-.9.9-2.3,2.4-3.3,3.1l-1.8,1.5Z"/>
    <polygon class="st0" points="24.1 39.2 25.9 43.8 19.3 45.1 19 44.8 18.5 38.5 24.1 39.2"/>
    <polygon class="st0" points="15.4 9.3 16.2 13.9 12.2 17.1 11.9 17.1 9 12 15.4 9.3"/>
    <path class="st1" d="M28.8,44.7l.5,1.3c.4.8.9,2.1,1.1,3s.2.8-.2.9l-4.6,1c-1-.9-1.9-2-3.1-2.7,0-.3.3-.4.6-.6,1.1-.7,2.5-1.2,3.6-1.9s1.4-1.1,2.3-1.2Z"/>
    <path class="st1" d="M16.1,2.5c.4,1.2.7,2.4,1,3.6s.2,1,0,1.1l-6.9.7-.3-.2,1.2-3.6c.5-.3,4.7-1.8,4.9-1.6Z"/>
    <path class="st0" d="M39.3,42.9c-1.4,1.9-2.6,3.8-4.4,5.3l-3.2-3.3,2.7-2.2c.5-.1,1.1-.9,1.5-1,.9-.2,2.5,1,3.4,1.2Z"/>
    <path class="st5" d="M17.7,17.1l1.7,3.6c-.4.5-1.8,3.6-2.3,3.6l-3.7-3.5c0-.1-.1-.3-.1-.5s2.8-2.4,3.2-2.8.6-1,1.2-.5Z"/>
    <path class="st5" d="M21.8,31s0,.1.1.2c.2.1.6.1.7.5.3,1.4.5,2.8.5,4.2-.4,0-.8,0-1.2,0s-.4-.2-.6-.2c-.7,0-3.1-.2-3.5-.6s-.1-.2-.1-.3l1-5.1c.2-.1.6.1.8.2.6.3,1.7.8,2.3,1.1Z"/>
    <path class="st0" d="M25.6,5.4c-.2.2-.4.4-.6.6l-5.4-.5c0,0,.7-1.9.8-2.1s.2-1.6.3-1.7c.1-.1.2,0,.3,0,.6,0,1.6.4,2.2.5,1.4.4,2.7.9,4,1.4.2.1-.2.5-.3.7-.3.4-.8.9-1.2,1.3Z"/>
    <path class="st5" d="M33.5,40.4c-.7.8-2.7,1.9-3.7,2.5s-.3.5-.7.3l-1.8-4.3c.1-.3.8-.5,1.1-.6.4-.2,2.5-.8,2.9-.7.7.1,1.9,1.9,2.5,2.4v.3c0,0-.2.1-.2.2Z"/>
    <path class="st5" d="M24.2,8.1c.1.1-.7,3.2-.9,3.3l-3.9,1.2-.8-4.7,5.6.2Z"/>
    <path class="st6" d="M21.6,22.9c.8.8,1.6,1.5,2.3,2.3l-.7,3.6c-.1.2-2.5-1.4-2.8-1.6s-.8-.4-1.1-.7l1.8-3.9c.1-.3.5.2.5.3Z"/>
    <path class="st1" d="M41.4,46.7c-.2.1-1.2.4-1.5.5-.5.1-1,.3-1.5.3l3-6.3c.4.2,2.7.8,2.7,1.2,0,.3-.2.5-.3.7-.3.5-2,3.3-2.3,3.6Z"/>
    <path class="st6" d="M29.1,33c.3.6.8,1.4,1,2s0,.3,0,.4l-4.2.7-.9-4.2c.8-.2,1.6,0,2.5,0s.8-.3,1.2.3.2.4.3.6Z"/>
    <path class="st6" d="M24.1,17l-2.7,2.1h-.3s-1.6-4-1.6-4l3.9-1.4c.2,0,.2.2.3.4.1.3.5,2.8.4,3Z"/>
    <path class="st5" d="M41.4,40.1l-3.3-.9c-.1-.2.5-1.4.7-1.7s.5-.6.5-.7c.3-.5.5-1.1.8-1.6l2.7-.7-1.4,5.5Z"/>
    <path class="st5" d="M31.6,5.5c.7.5,1.4,1.2,2,1.8s1,.5,1.2,1.2l-2.6.7-3.9-2c-.2-.3,1.8-1.9,2-2.3.5,0,.8.4,1.2.7Z"/>
    <path class="st0" d="M43.4,39.2l1.1-5.3,2.2-2.6c0,1.7,0,3.3-.2,5s-.2,1.5-.3,1.7-2.2,1-2.7,1.2Z"/>
    <path class="st6" d="M38.5,34.7c.2.2-2.1,3.2-2.5,3.6-.2,0-2.5-2-2.8-2.3l2.6-2.5c1,.2,1.8.6,2.7,1.1Z"/>
    <path class="st1" d="M31.8,2c0,.1-1.6,1.8-1.8,1.8L23.9.4c0-.2.2-.1.4-.2,2.4-.6,3.3-.2,5.4.7.7.3,1.4.8,2.1,1Z"/>
    <path class="st6" d="M26.9,8.5l4.1,1.8-1.5,2c-.1,0-1.5-.2-1.8-.2s-1.8-.3-1.9-.5l1-3.1Z"/>
    <path class="st0" d="M40.2,9.7l-3.2-1.3-4.1-3.7c0-.2,1.2-.2,1.5-.2s1,0,1.3.1c.7.2,2.1,1.8,2.6,2.4s1.3,1.7,1.9,2.6Z"/>
    <path class="st5" d="M44.8,30.3l-.7-4.4.9-3c.3.4.4.9.6,1.4s1,2.8,1,3.3-1.5,2.2-1.9,2.8Z"/>
    <path class="st5" d="M43.3,17.5c-.2,0-.2,0-.3-.2-.5-.6-2-1.8-2.3-2.2s-.4-1.1-.6-1.4c-.4-.8-.8-1.7-1.3-2.5.2-.2,3.2,1.4,3.4,1.7.4,1.5,1,3,1.1,4.5Z"/>
    <path class="st6" d="M43,27.2l.3,4.4-2.6,1.1.4-3.8c0,0,1.4-1.3,1.6-1.5s.1-.2.3-.2Z"/>
    <path class="st6" d="M37,10.6l2.1,3.8-2.6-.6c-.2-.4-2.5-2.8-2.3-3l2.8-.2Z"/>
    <path class="st0" d="M47.1,24.5c-.3,0-.2,0-.2-.2-.5-1.2-1.4-3-1.7-4.2s-.4-3-.9-4.4c.3,0,.4.4.6.6.8,1,2.3,3.7,2.3,4.9v3.5Z"/>
    <path class="st6" d="M41.3,17.8c0,0-.2-.2-.1-.4.5.2.7.7,1,1.1s.6.7,1,1.1.6.3.6,1c-.2.8-.3,1.7-.4,2.6s-.1.7-.3.8c-.3-.7-.7-1.5-1.1-2.2s-.7-.8-.7-1.2c0-.8,0-1.8,0-2.6Z"/>
    <path class="st1" d="M48.2,25.7c.3,2.7.4,5.5-.4,8.1-.3-.6-.1-1.5-.2-2.1,0-1-.5-2.8-.4-3.7s.8-1.5.7-2.2h.3Z"/>
    <path class="st1" d="M44.7,14.4c-.2,0-.3-.1-.4-.2-.7-.6-1.2-1.3-1.9-1.8l-2.4-4.6c2,1.8,3.5,4.1,4.7,6.6Z"/>
  </g>
  <g>
    <g>
      <g>
        <text class="st2" transform="translate(55.5 12.7)"><tspan x="0" y="0">NEO</tspan><tspan x="0" y="9.4">ENGINEERING</tspan><tspan x="0" y="18.7">U.S.A 2025</tspan></text>
        <text class="st3" transform="translate(56 40.5)"><tspan x="0" y="0">A Virtual Engineering </tspan><tspan x="0" y="5.2" xml:space="preserve">Fair Powered by      </tspan></text>
      </g>
      <text class="st4" transform="translate(126 13.7)"><tspan x="0" y="0">TM</tspan></text>
    </g>
    <g id="Group_1034">
      <g id="Group_363">
        <g id="Group_336">
          <path id="Path_190" class="st0" d="M85.4,42.7c.1,0,.2,0,.3,0v-.3c-1-.2-2,.5-2.2,1.6-.1.8.3,1.6,1,2h0s0,0,0,0h0s0,0,0,0h0s0,0,0,0h0s0,0,0,0h0s0,0,0,0h0s0,0,0,0h0s0,0,0,0h0s0,0,0,0h0s.1-2.1.1-2.1l.9.5v-.6c-.1,0-1.3-.7-1.3-.7v2.4c-.7-.5-.9-1.5-.4-2.2.3-.4.8-.7,1.3-.7"/>
        </g>
        <g id="Group_337">
          <path id="Path_192" class="st0" d="M86.3,42.6h0s0,0-.1,0h0s0,0,0,0h0s0,0,0,0h0s0,0,0,0c0,0,0,0,0,0,0,0,0,0,0,0v2.3l-.9-.5v.4l1.2.7v-2.4c.7.5.9,1.5.4,2.2-.4.5-1,.8-1.6.6v.3c1,.2,2-.5,2.2-1.6.1-.8-.3-1.6-1-2"/>
        </g>
      </g>
    </g>
  </g>
</svg>